<svg width="24" height="24" viewBox="0 0 24 24" fill="none" xmlns="http://www.w3.org/2000/svg">
<path d="M12.0001 8.26688e-09C12.9873 -6.44109e-05 13.9371 0.37636 14.6547 1.05206C15.3723 1.72775 15.8032 2.65149 15.8591 3.63378L15.865 3.85185H22.1084C22.3343 3.85192 22.5519 3.93747 22.717 4.09123C22.8821 4.24498 22.9825 4.45547 22.9979 4.68015C23.0133 4.90484 22.9426 5.12698 22.8 5.30169C22.6574 5.47639 22.4535 5.59064 22.2297 5.62133L22.1084 5.62963H21.1618L19.6396 21.0607C19.5633 21.8301 19.2152 22.5473 18.6573 23.0844C18.0994 23.6215 17.3681 23.9435 16.594 23.9929L16.3847 24H7.61554C6.83954 24 6.08883 23.7249 5.49758 23.2241C4.90632 22.7232 4.51305 22.0291 4.38804 21.2658L4.36069 21.0596L2.83732 5.62963H1.8919C1.67637 5.62962 1.46814 5.55183 1.30571 5.41065C1.14328 5.26946 1.03764 5.07443 1.00832 4.86163L1 4.74074C1.00001 4.52594 1.07806 4.31841 1.21973 4.15653C1.36139 3.99464 1.55708 3.88936 1.7706 3.86015L1.8919 3.85185H8.13522C8.13522 2.83028 8.54242 1.85054 9.26723 1.12818C9.99204 0.405819 10.9751 8.26689e-09 12.0001 8.26688e-09V8.26688e-09ZM19.3696 5.62963H4.62945L6.13617 20.8853C6.16953 21.2257 6.32005 21.5441 6.56217 21.7865C6.8043 22.0289 7.12311 22.1803 7.46451 22.2151L7.61554 22.2222H16.3847C17.0983 22.2222 17.7036 21.7185 17.8415 21.0347L17.8653 20.8853L19.3684 5.62963H19.3696ZM14.0812 8.88889C14.2968 8.8889 14.505 8.96669 14.6674 9.10787C14.8299 9.24906 14.9355 9.44408 14.9648 9.65689L14.9731 9.77778V18.0741C14.9731 18.2993 14.8872 18.5161 14.733 18.6806C14.5787 18.8452 14.3675 18.9453 14.142 18.9606C13.9166 18.976 13.6937 18.9055 13.5184 18.7633C13.3431 18.6212 13.2285 18.4181 13.1977 18.195L13.1893 18.0741V9.77778C13.1893 9.54203 13.2833 9.31594 13.4506 9.14924C13.6178 8.98254 13.8447 8.88889 14.0812 8.88889ZM9.91903 8.88889C10.1346 8.8889 10.3428 8.96669 10.5052 9.10787C10.6677 9.24906 10.7733 9.44408 10.8026 9.65689L10.8109 9.77778V18.0741C10.8109 18.2993 10.725 18.5161 10.5707 18.6806C10.4165 18.8452 10.2053 18.9453 9.97982 18.9606C9.75437 18.976 9.53148 18.9055 9.35618 18.7633C9.18088 18.6212 9.06625 18.4181 9.03545 18.195L9.02713 18.0741V9.77778C9.02713 9.54203 9.12109 9.31594 9.28836 9.14924C9.45562 8.98254 9.68248 8.88889 9.91903 8.88889ZM12.0001 1.77778C11.4778 1.7778 10.9747 1.97354 10.5905 2.32614C10.2063 2.67874 9.96914 3.16243 9.92616 3.68119L9.91903 3.85185H14.0812C14.0812 3.30177 13.862 2.77422 13.4717 2.38526C13.0814 1.9963 12.5521 1.77778 12.0001 1.77778Z" fill="#F9820B"/>
</svg>
