<svg width="40" height="40" viewBox="0 0 40 40" fill="none" xmlns="http://www.w3.org/2000/svg">
<g clip-path="url(#clip0_189_1721)">
<path d="M37.4528 9.01999C35.6528 8.98499 33.8459 9.00299 32.0429 9.01999C31.8404 9.01184 31.6412 9.07352 31.4787 9.19455C31.3161 9.31559 31.2 9.4887 31.1498 9.68503C29.8178 14.343 28.6499 19.0541 27.2799 23.6931C21.2909 23.7631 15.3039 23.675 9.31486 23.728C9.07069 23.7454 8.84257 23.8559 8.67741 24.0366C8.51224 24.2173 8.42268 24.4543 8.42716 24.6991C8.43165 24.9438 8.5299 25.1775 8.70158 25.352C8.87325 25.5265 9.10537 25.6286 9.35001 25.6371C15.514 25.6721 21.6599 25.637 27.8239 25.654C28.0936 25.6822 28.364 25.6076 28.5812 25.4453C28.7984 25.2829 28.9467 25.0447 28.996 24.778C30.257 20.156 31.4958 15.551 32.7958 10.945C34.3888 10.805 36.018 11.0151 37.611 10.8451C37.8047 10.7716 37.969 10.6369 38.0793 10.4614C38.1895 10.2859 38.2395 10.0792 38.2216 9.87278C38.2037 9.66633 38.1191 9.47139 37.9804 9.31748C37.8416 9.16357 37.6563 9.0591 37.4528 9.01999V9.01999Z" fill="white"/>
<path d="M10.873 22.94H25.582C25.8293 22.9838 26.0842 22.9348 26.2976 22.8023C26.5109 22.6697 26.6677 22.4632 26.738 22.2221C27.7 18.6681 28.594 15.113 29.538 11.558C29.5961 11.4026 29.6142 11.2352 29.5905 11.0711C29.5668 10.9069 29.5022 10.7513 29.4025 10.6187C29.3029 10.4861 29.1715 10.3807 29.0205 10.3123C28.8694 10.2438 28.7034 10.2146 28.538 10.2271C21.604 10.2451 14.6871 10.192 7.75314 10.262C7.10614 10.314 6.86003 11.102 7.07003 11.645C7.96303 15.13 8.82114 18.645 9.73214 22.134C9.78834 22.3861 9.93628 22.6081 10.1472 22.7571C10.3581 22.9061 10.6167 22.9712 10.873 22.94V22.94ZM20.258 20.996C19.049 20.996 17.842 20.996 16.633 20.978C16.5225 20.5018 16.4813 20.0121 16.5109 19.5241C17.7549 19.5241 19.0321 19.507 20.2761 19.542C20.4851 19.963 20.293 20.524 20.258 20.997V20.996ZM20.521 17.476C19.1372 17.6335 17.7412 17.6509 16.354 17.528C16.2801 16.9943 16.2508 16.4555 16.2661 15.917C17.7133 15.8385 19.1642 15.8561 20.6091 15.97C20.6152 16.4738 20.5856 16.9774 20.521 17.4771V17.476ZM22.8151 12.153C24.3211 12.118 25.8441 12.118 27.3671 12.153C27.2694 12.774 27.1109 13.3839 26.894 13.974C25.529 14.009 24.145 13.992 22.779 13.974C22.6776 13.3707 22.6899 12.7538 22.8151 12.155V12.153ZM22.57 15.917C23.83 15.847 25.1079 15.9 26.3859 15.9C26.2459 16.442 26.2631 17.1431 25.8781 17.5451C24.7581 17.6151 23.62 17.58 22.499 17.58C22.4526 17.0242 22.4765 16.4649 22.57 15.915V15.917ZM22.3071 19.542C23.3751 19.507 24.426 19.524 25.476 19.542C25.38 20.0229 25.251 20.4967 25.09 20.96C24.163 21.031 23.217 20.995 22.271 20.995C22.2392 20.5109 22.2514 20.0249 22.3071 19.543V19.542ZM16.021 12.135C17.632 12.135 19.243 12.118 20.854 12.153C20.854 12.748 20.8011 13.361 20.7541 13.953C19.2131 14.006 17.6892 13.988 16.1482 13.971C16.0276 13.3676 15.9847 12.7512 16.021 12.137V12.135ZM14.6381 20.978C13.5691 20.996 12.502 21.013 11.438 20.978C11.2644 20.5077 11.1411 20.0203 11.07 19.5241C12.226 19.5241 13.364 19.507 14.52 19.542C14.6206 20.014 14.6604 20.4969 14.6381 20.979V20.978ZM14.393 17.563C13.115 17.6217 11.8348 17.6099 10.5581 17.528C10.3737 17.0049 10.2398 16.4655 10.1582 15.917C11.535 15.8502 12.9144 15.8619 14.29 15.952C14.3766 16.4851 14.4108 17.0252 14.3921 17.565L14.393 17.563ZM9.21017 12.135C10.8392 12.153 12.449 12.083 14.06 12.188C14.1246 12.7857 14.1538 13.3869 14.1472 13.988C12.6592 13.988 11.1701 14.006 9.68209 13.97C9.46135 13.377 9.30269 12.7627 9.20895 12.137L9.21017 12.135Z" fill="white"/>
<path d="M12.6771 26.3899C12.2583 26.5276 11.8885 26.7841 11.6129 27.1282C11.3372 27.4723 11.1678 27.8891 11.1248 28.3279C11.0819 28.7667 11.1673 29.2085 11.3709 29.5995C11.5746 29.9905 11.8876 30.3138 12.2718 30.5301C12.656 30.7463 13.0948 30.8462 13.5348 30.8175C13.9747 30.7889 14.397 30.6328 14.7498 30.3685C15.1027 30.1041 15.3709 29.7429 15.5221 29.3288C15.6732 28.9146 15.7007 28.4654 15.6012 28.0359C15.531 27.7278 15.3971 27.4378 15.2081 27.1845C15.0191 26.9312 14.7791 26.7203 14.5038 26.5652C14.2284 26.4102 13.9236 26.3145 13.609 26.2843C13.2944 26.2542 12.9769 26.2901 12.6771 26.3899V26.3899Z" fill="white"/>
<path d="M24.216 26.3191C23.7639 26.4172 23.3525 26.651 23.0366 26.989C22.7207 27.327 22.5156 27.7533 22.4482 28.211C22.3782 28.69 22.4629 29.1788 22.6902 29.6062C22.9174 30.0336 23.2752 30.3773 23.7114 30.5871C24.1476 30.797 24.6395 30.8621 25.1152 30.7728C25.591 30.6835 26.0257 30.4446 26.3562 30.0909C26.6867 29.7372 26.8958 29.2873 26.9526 28.8066C27.0095 28.3259 26.9112 27.8396 26.6723 27.4186C26.4335 26.9975 26.0663 26.6638 25.6245 26.466C25.1827 26.2683 24.6892 26.2168 24.216 26.3191V26.3191Z" fill="white"/>
</g>
<defs>
<clipPath id="clip0_189_1721">
<rect width="31.219" height="21.829" fill="white" transform="translate(7 9)"/>
</clipPath>
</defs>
</svg>
