<svg width="40" height="40" viewBox="0 0 40 40" fill="none" xmlns="http://www.w3.org/2000/svg">
<path d="M16.13 17.3964C16.0281 17.5097 15.9472 17.6447 15.892 17.7935C15.8368 17.9423 15.8083 18.1019 15.8083 18.2632C15.8083 18.4244 15.8368 18.5841 15.892 18.7328C15.9472 18.8816 16.0281 19.0166 16.13 19.1299L18.22 21.4826H8.1C7.495 21.4826 7 22.0398 7 22.7208C7 23.4019 7.495 23.9591 8.1 23.9591H18.22L16.13 26.3117C16.0281 26.4251 15.9472 26.56 15.892 26.7088C15.8368 26.8576 15.8083 27.0172 15.8083 27.1785C15.8083 27.3397 15.8368 27.4994 15.892 27.6482C15.9472 27.797 16.0281 27.9319 16.13 28.0453C16.559 28.5282 17.241 28.5282 17.67 28.0453L21.619 23.6C21.721 23.4854 21.8019 23.3494 21.8571 23.1996C21.9123 23.0498 21.9407 22.8892 21.9407 22.727C21.9407 22.5649 21.9123 22.4043 21.8571 22.2545C21.8019 22.1047 21.721 21.9686 21.619 21.8541L17.67 17.3964C17.5693 17.2817 17.4494 17.1906 17.3172 17.1284C17.1851 17.0663 17.0432 17.0343 16.9 17.0343C16.7568 17.0343 16.6149 17.0663 16.4828 17.1284C16.3506 17.1906 16.2307 17.2817 16.13 17.3964V17.3964ZM26.8 31.3885H19.1C18.495 31.3885 18 31.9457 18 32.6268C18 33.3078 18.495 33.865 19.1 33.865H26.8C28.01 33.865 29 32.7506 29 31.3885V14.0531C29 12.6911 28.01 11.5767 26.8 11.5767H19.1C18.495 11.5767 18 12.1339 18 12.8149C18 13.4959 18.495 14.0531 19.1 14.0531H26.8V31.3885Z" fill="white"/>
</svg>
