<svg width="190" height="102" viewBox="0 0 190 102" fill="none" xmlns="http://www.w3.org/2000/svg">
<g clip-path="url(#clip0_189_1724)">
<path d="M74.1643 39.0018L77.2882 21.9635H86.2376L88.1432 11.5081H78.9405L80.9427 0H67.398L65.4079 11.5081H58.5451L56.6394 21.9635H63.7555L60.4628 40.3934C60.2939 41.2042 60.1492 42.0633 60.0648 42.9709C59.9804 43.8785 59.9442 44.6772 59.9442 45.3669C59.9442 49.0336 61.1382 51.72 63.5505 53.4142C65.9506 55.0962 69.2434 55.9433 73.4165 55.9433C74.7433 55.9433 76.1424 55.8223 77.6259 55.5561C79.0973 55.2898 80.2432 54.9873 81.0633 54.6364L82.3659 44.6167C81.8352 44.7256 81.2442 44.8466 80.5929 44.9555C79.9175 45.0765 79.2421 45.137 78.5546 45.137C77.1676 45.137 76.07 44.8708 75.2498 44.3505C74.4417 43.818 74.0437 42.8257 74.0437 41.3736C74.0437 41.0711 74.0558 40.7201 74.092 40.2724C74.0678 39.8368 74.1161 39.4132 74.1643 39.0018Z" fill="#F9820B"/>
<g opacity="0.5">
<path opacity="0.5" d="M136.026 90.8912C134.904 93.2509 133.361 95.2476 131.383 96.9054C129.405 98.5633 127.077 99.8218 124.351 100.693C121.625 101.564 118.67 102 115.498 102C111.397 102 107.707 101.274 104.474 99.8218C101.242 98.3697 98.4676 96.4214 96.1881 93.9891C93.8965 91.5447 92.1476 88.7009 90.9294 85.4457C89.7112 82.2026 89.1082 78.7659 89.1082 75.1719C89.1082 72.2071 89.675 69.5449 90.8088 67.1973C91.9425 64.8376 93.4622 62.8409 95.4041 61.1831C97.3459 59.5373 99.6617 58.2667 102.351 57.3954C105.053 56.5241 107.96 56.0885 111.084 56.0885C115.245 56.0885 118.972 56.8025 122.24 58.2183C125.497 59.6462 128.295 61.5824 130.611 64.0147C132.939 66.447 134.687 69.3029 135.918 72.546C137.136 75.8012 137.739 79.2621 137.739 82.9166C137.727 85.8814 137.172 88.5557 136.026 90.8912ZM123.145 76.1279C122.566 74.4458 121.734 72.9695 120.66 71.6868C119.587 70.4041 118.308 69.4118 116.813 68.6857C115.293 67.9597 113.616 67.5966 111.771 67.5966C108.876 67.5966 106.645 68.4558 105.077 70.1742C103.521 71.8804 102.737 74.0465 102.737 76.6603C102.737 78.5239 103.027 80.2907 103.606 81.9848C104.185 83.6669 104.993 85.1432 106.03 86.4259C107.079 87.7086 108.346 88.7251 109.853 89.4754C111.361 90.2257 113.038 90.6129 114.895 90.6129C117.79 90.6129 120.033 89.7416 121.625 87.9991C123.217 86.2565 124.025 84.0904 124.025 81.4645C124.013 79.5888 123.712 77.822 123.145 76.1279Z" fill="url(#paint0_linear_189_1724)"/>
</g>
<path d="M111.072 57.2623C107.839 57.2623 104.788 56.8025 101.989 55.907C99.1792 54.9994 96.7066 53.6562 94.6442 51.9015C92.5938 50.1469 90.9534 47.9929 89.7594 45.5001C88.5533 42.9951 87.9502 40.1514 87.9502 37.0172C87.9502 33.278 88.5894 29.6839 89.8438 26.3319C91.1102 22.9557 92.9556 19.9426 95.3437 17.4014C97.7077 14.8722 100.627 12.815 104.004 11.3024C107.369 9.78977 111.24 9.0274 115.498 9.0274C118.779 9.0274 121.878 9.48725 124.713 10.3827C127.559 11.2903 130.068 12.6456 132.142 14.3882C134.241 16.1549 135.906 18.3089 137.088 20.8018C138.282 23.2704 138.897 26.1262 138.897 29.2604C138.897 33.048 138.257 36.6784 137.003 40.0425C135.725 43.455 133.855 46.456 131.455 48.9731C129.055 51.5022 126.112 53.5473 122.711 55.0357C119.297 56.5241 115.377 57.2623 111.072 57.2623ZM114.895 22.7742C113.206 22.7742 111.723 23.101 110.372 23.7786C109.021 24.4563 107.887 25.3639 106.935 26.5256C105.994 27.6873 105.234 29.0668 104.703 30.6036C104.16 32.1768 103.895 33.7862 103.895 35.5409C103.895 37.8522 104.583 39.7641 105.921 41.2405C107.272 42.7168 109.178 43.4429 111.759 43.4429C113.411 43.4429 114.943 43.1161 116.306 42.4627C117.657 41.7971 118.803 40.9138 119.768 39.7641C120.757 38.5903 121.517 37.2229 122.047 35.6982C122.59 34.1008 122.855 32.4793 122.855 30.7609C122.855 28.4254 122.168 26.5498 120.769 25.025C119.394 23.5003 117.476 22.7742 114.895 22.7742Z" fill="url(#paint1_linear_189_1724)"/>
<path d="M111.072 56.391C107.936 56.391 104.969 55.9433 102.255 55.072C99.5531 54.2007 97.177 52.9059 95.211 51.236C93.2571 49.566 91.6892 47.5088 90.5434 45.1249C89.3975 42.741 88.8186 40.0183 88.8186 37.0293C88.8186 33.399 89.4337 29.9139 90.664 26.6587C91.8942 23.3793 93.6793 20.475 95.983 18.0185C98.2746 15.5741 101.097 13.5895 104.365 12.1132C107.61 10.6489 111.361 9.91077 115.51 9.91077C118.706 9.91077 121.709 10.3585 124.459 11.2298C127.197 12.1011 129.598 13.3959 131.588 15.0658C133.59 16.7479 135.182 18.8051 136.304 21.1769C137.449 23.5366 138.028 26.2593 138.028 29.2604C138.028 32.9512 137.413 36.4726 136.183 39.7399C134.941 43.0314 133.143 45.9357 130.816 48.368C128.488 50.8124 125.641 52.7849 122.361 54.237C119.056 55.665 115.257 56.391 111.072 56.391ZM114.895 21.9029C113.098 21.9029 111.445 22.2781 109.986 23.0041C108.539 23.7302 107.284 24.7346 106.259 25.981C105.246 27.2274 104.45 28.6916 103.883 30.3253C103.316 31.9831 103.039 33.7015 103.039 35.553C103.039 38.0942 103.799 40.1998 105.294 41.8455C106.79 43.4913 108.973 44.3262 111.771 44.3262C113.556 44.3262 115.208 43.9753 116.692 43.2613C118.163 42.5474 119.394 41.5793 120.443 40.3329C121.492 39.0744 122.313 37.6101 122.879 35.9886C123.446 34.2944 123.736 32.5761 123.736 30.7609C123.736 28.2318 122.952 26.102 121.42 24.4321C119.888 22.75 117.693 21.9029 114.895 21.9029Z" fill="url(#paint2_linear_189_1724)"/>
<path d="M111.072 55.2293C108.056 55.2293 105.21 54.8058 102.605 53.9708C100.048 53.1479 97.8163 51.9257 95.9589 50.3526C94.1256 48.7916 92.6542 46.8554 91.5928 44.6288C90.5193 42.4022 89.9766 39.8489 89.9766 37.0293C89.9766 33.5442 90.5676 30.1922 91.7496 27.0701C92.9316 23.8996 94.596 21.2011 96.8273 18.8172C99.0104 16.4817 101.712 14.5818 104.836 13.1781C107.936 11.7865 111.53 11.0846 115.498 11.0846C118.574 11.0846 121.468 11.5081 124.098 12.3431C126.691 13.1781 128.958 14.3882 130.84 15.9613C132.709 17.5345 134.205 19.4585 135.254 21.6851C136.328 23.8875 136.871 26.4409 136.871 29.2725C136.871 32.8181 136.28 36.2064 135.098 39.3406C133.916 42.4869 132.191 45.258 129.984 47.5814C127.764 49.917 125.038 51.8047 121.903 53.1843C118.743 54.5396 115.1 55.2293 111.072 55.2293ZM114.895 20.7292C112.917 20.7292 111.084 21.1406 109.467 21.9514C107.875 22.75 106.488 23.8512 105.367 25.2308C104.269 26.5861 103.401 28.1713 102.786 29.9381C102.17 31.729 101.869 33.5563 101.869 35.5409C101.869 38.3725 102.737 40.7564 104.438 42.62C106.163 44.5199 108.635 45.4759 111.771 45.4759C113.725 45.4759 115.546 45.0765 117.187 44.3021C118.827 43.5034 120.178 42.4506 121.336 41.0711C122.481 39.7036 123.374 38.1184 123.977 36.3516C124.592 34.5244 124.894 32.685 124.894 30.7488C124.894 27.9172 124.013 25.5212 122.264 23.6213C120.516 21.7093 118.043 20.7292 114.895 20.7292Z" fill="url(#paint3_linear_189_1724)"/>
<path d="M189.204 18.5146C188.685 16.9173 187.865 15.5015 186.731 14.2914C185.598 13.0691 184.174 12.1132 182.437 11.4113C180.701 10.7094 178.614 10.3706 176.19 10.3706C173.174 10.3706 170.509 11.0725 168.193 12.4641C165.877 13.8436 164.032 15.6225 162.645 17.7765H162.476C162.585 16.8447 162.717 15.7556 162.862 14.4729C162.995 13.1902 163.103 12.21 163.164 11.5081H149.884C149.776 12.8997 149.583 14.4729 149.33 16.2033C149.064 17.9459 148.823 19.3738 148.594 20.475L142.599 54.8905H156.494L160.667 31.4265C160.896 30.1438 161.258 28.9337 161.753 27.7841C162.247 26.6224 162.886 25.6059 163.658 24.7467C164.442 23.8754 165.347 23.1856 166.348 22.7016C167.361 22.2055 168.519 21.9755 169.785 21.9755C171.932 21.9755 173.416 22.5322 174.26 23.6697C175.104 24.8072 175.526 26.1746 175.526 27.7962C175.526 28.8974 175.382 30.1075 175.092 31.4386L171.016 54.9026H184.898L189.59 28.2439C189.759 27.4936 189.879 26.7192 189.927 25.9326C189.988 25.1581 190.024 24.3595 190.024 23.5366C190 21.7819 189.734 20.1241 189.204 18.5146Z" fill="#F9820B"/>
<path d="M189.204 18.5146C188.685 16.9173 187.865 15.5015 186.731 14.2914C185.598 13.0691 184.174 12.1132 182.437 11.4113C180.701 10.7094 178.614 10.3706 176.19 10.3706C173.174 10.3706 170.509 11.0725 168.193 12.4641C165.877 13.8436 164.032 15.6225 162.645 17.7765H162.476C162.585 16.8447 162.717 15.7556 162.862 14.4729C162.995 13.1902 163.103 12.21 163.164 11.5081H149.884C149.776 12.8997 149.583 14.4729 149.33 16.2033C149.064 17.9459 148.823 19.3738 148.594 20.475L142.599 54.8905H156.494L160.667 31.4265C160.896 30.1438 161.258 28.9337 161.753 27.7841C162.247 26.6224 162.886 25.6059 163.658 24.7467C164.442 23.8754 165.347 23.1856 166.348 22.7016C167.361 22.2055 168.519 21.9755 169.785 21.9755C171.932 21.9755 173.416 22.5322 174.26 23.6697C175.104 24.8072 175.526 26.1746 175.526 27.7962C175.526 28.8974 175.382 30.1075 175.092 31.4386L171.016 54.9026H184.898L189.59 28.2439C189.759 27.4936 189.879 26.7192 189.927 25.9326C189.988 25.1581 190.024 24.3595 190.024 23.5366C190 21.7819 189.734 20.1241 189.204 18.5146Z" fill="#F9820B"/>
<path d="M51.6822 28.4859C51.6822 29.5266 51.5857 30.8577 51.3807 32.443C51.1756 34.0403 50.8982 35.5409 50.5605 36.9325H19.5632C19.5029 37.1624 19.4668 37.4286 19.4668 37.7069C19.4668 38.9292 19.7442 40.0183 20.2869 40.9742C20.8417 41.9302 21.5654 42.741 22.47 43.4066C23.3625 44.0721 24.3757 44.5804 25.4974 44.9313C26.6311 45.2822 27.801 45.4637 29.0192 45.4637C31.2144 45.4637 33.1562 45.0644 34.8327 44.2415C36.5092 43.4308 38.0169 42.3296 39.3436 40.9379L48.1121 47.8234C45.338 50.7882 42.2383 52.918 38.825 54.2128C35.4237 55.5318 31.733 56.1853 27.801 56.1853C24.7978 56.1853 21.9996 55.7618 19.4185 54.9147C16.8374 54.0797 14.6061 52.8333 12.6884 51.1754C10.7706 49.5176 9.26299 47.4725 8.17748 45.0281C7.10403 42.6563 6.56128 39.9456 6.52509 36.9083H4.65561C4.65561 36.9083 3.31682 35.795 1.64031 33.6168C-0.0965013 31.3781 -1.16656e-05 28.3891 -1.16656e-05 28.3891H5.70493H7.75534H20.504V28.4012H39.2712C39.3315 28.1108 39.3557 27.8325 39.3557 27.5299V26.6587C39.3557 24.7346 38.6682 23.1493 37.3173 21.8666C35.9665 20.5839 34.0005 19.9547 31.4556 19.9547C29.8997 19.9547 28.4885 20.233 27.2462 20.7775C25.9919 21.3221 24.9064 22.0118 23.9897 22.8226C23.061 23.6334 22.3132 24.541 21.7343 25.5212C21.1915 26.4408 20.8055 27.3484 20.5643 28.2197C16.1861 27.9414 11.2893 27.1911 8.34633 26.6829C8.39458 26.5376 8.44282 26.3924 8.50313 26.2593C9.80574 23.0283 11.5908 20.233 13.8824 17.8491C16.162 15.4652 18.8999 13.5895 22.0961 12.2342C25.2803 10.8667 28.778 10.1891 32.5893 10.1891C35.4237 10.1891 38.0169 10.5884 40.3688 11.3992C42.7087 12.21 44.7229 13.3838 46.3994 14.9327C48.0759 16.4695 49.3785 18.3694 50.3072 20.6444C51.2239 22.9073 51.6822 25.5333 51.6822 28.4859Z" fill="#F9820B"/>
</g>
<defs>
<linearGradient id="paint0_linear_189_1724" x1="113.415" y1="56.1017" x2="113.415" y2="102.001" gradientUnits="userSpaceOnUse">
<stop stop-color="#F7941E" stop-opacity="0.8"/>
<stop offset="0.2086" stop-color="#9EA0A3" stop-opacity="0.47"/>
<stop offset="0.4356" stop-color="#96999B" stop-opacity="0"/>
<stop offset="0.6196" stop-color="#DEDFE1" stop-opacity="0"/>
<stop offset="1" stop-color="white" stop-opacity="0"/>
</linearGradient>
<linearGradient id="paint1_linear_189_1724" x1="113.415" y1="9.03575" x2="113.415" y2="57.2681" gradientUnits="userSpaceOnUse">
<stop stop-color="#FFCE6B"/>
<stop offset="0.227" stop-color="#FBB040"/>
<stop offset="0.2638" stop-color="white"/>
<stop offset="0.5399" stop-color="#F7941E"/>
<stop offset="0.6994" stop-color="white"/>
<stop offset="0.8834" stop-color="#F7941E"/>
<stop offset="1" stop-color="#FBB040"/>
</linearGradient>
<linearGradient id="paint2_linear_189_1724" x1="113.415" y1="63.3321" x2="113.415" y2="16.8487" gradientUnits="userSpaceOnUse">
<stop stop-color="#FBB040"/>
<stop offset="0.1166" stop-color="#F7941E"/>
<stop offset="0.6371" stop-color="#F7941E"/>
<stop offset="0.6418" stop-color="#FBB040"/>
<stop offset="1" stop-color="white"/>
</linearGradient>
<linearGradient id="paint3_linear_189_1724" x1="113.415" y1="55.2267" x2="113.415" y2="11.0772" gradientUnits="userSpaceOnUse">
<stop stop-color="white"/>
<stop offset="0.0108" stop-color="#FDF9F3"/>
<stop offset="0.0483" stop-color="#F7E7CD"/>
<stop offset="0.0888" stop-color="#F1D7AD"/>
<stop offset="0.1323" stop-color="#EDCB93"/>
<stop offset="0.18" stop-color="#E9C17E"/>
<stop offset="0.2339" stop-color="#E7BA70"/>
<stop offset="0.2992" stop-color="#E5B668"/>
<stop offset="0.4077" stop-color="#E5B565"/>
<stop offset="0.4236" stop-color="#F57E20"/>
<stop offset="0.7314" stop-color="#E0A555"/>
<stop offset="1" stop-color="#FEE8DD"/>
</linearGradient>
<clipPath id="clip0_189_1724">
<rect width="190" height="102" fill="white"/>
</clipPath>
</defs>
</svg>
